<mxfile host="app.diagrams.net" modified="2021-09-16T16:27:04.449Z" agent="5.0 (X11; Linux x86_64) AppleWebKit/537.36 (KHTML, like Gecko) Chrome/93.0.4577.63 Safari/537.36" etag="bIXZKpQ-dggg8y-BC6dQ" version="15.2.7" type="github">
  <diagram id="z8tA9fzvjswGwNnZUVDG" name="Page-1">
    <mxGraphModel dx="825" dy="479" grid="1" gridSize="10" guides="1" tooltips="1" connect="1" arrows="1" fold="1" page="1" pageScale="1" pageWidth="850" pageHeight="1100" math="0" shadow="0">
      <root>
        <mxCell id="0" />
        <mxCell id="1" parent="0" />
        <mxCell id="SYFXpM9oOOUhwHKFrdhU-8" style="edgeStyle=orthogonalEdgeStyle;rounded=0;orthogonalLoop=1;jettySize=auto;html=1;exitX=1;exitY=0.5;exitDx=0;exitDy=0;entryX=0;entryY=0.5;entryDx=0;entryDy=0;" parent="1" source="SYFXpM9oOOUhwHKFrdhU-1" target="SYFXpM9oOOUhwHKFrdhU-6" edge="1">
          <mxGeometry relative="1" as="geometry" />
        </mxCell>
        <mxCell id="vOYP6_2Ntmlg7tgbJxV--3" style="edgeStyle=none;rounded=0;orthogonalLoop=1;jettySize=auto;html=1;exitX=0.5;exitY=0;exitDx=0;exitDy=0;entryX=0.65;entryY=1.025;entryDx=0;entryDy=0;entryPerimeter=0;" edge="1" parent="1" source="SYFXpM9oOOUhwHKFrdhU-1" target="SYFXpM9oOOUhwHKFrdhU-2">
          <mxGeometry relative="1" as="geometry" />
        </mxCell>
        <mxCell id="vOYP6_2Ntmlg7tgbJxV--4" style="edgeStyle=none;rounded=0;orthogonalLoop=1;jettySize=auto;html=1;entryX=0.55;entryY=1.015;entryDx=0;entryDy=0;entryPerimeter=0;" edge="1" parent="1" target="SYFXpM9oOOUhwHKFrdhU-3">
          <mxGeometry relative="1" as="geometry">
            <mxPoint x="260" y="369" as="sourcePoint" />
          </mxGeometry>
        </mxCell>
        <mxCell id="vOYP6_2Ntmlg7tgbJxV--5" style="edgeStyle=none;rounded=0;orthogonalLoop=1;jettySize=auto;html=1;exitX=0.5;exitY=0;exitDx=0;exitDy=0;" edge="1" parent="1" source="SYFXpM9oOOUhwHKFrdhU-1" target="SYFXpM9oOOUhwHKFrdhU-4">
          <mxGeometry relative="1" as="geometry" />
        </mxCell>
        <mxCell id="vOYP6_2Ntmlg7tgbJxV--6" style="edgeStyle=none;rounded=0;orthogonalLoop=1;jettySize=auto;html=1;exitX=0.5;exitY=0;exitDx=0;exitDy=0;entryX=0.19;entryY=0.885;entryDx=0;entryDy=0;entryPerimeter=0;" edge="1" parent="1" source="SYFXpM9oOOUhwHKFrdhU-1" target="SYFXpM9oOOUhwHKFrdhU-5">
          <mxGeometry relative="1" as="geometry" />
        </mxCell>
        <mxCell id="SYFXpM9oOOUhwHKFrdhU-1" value="Estudante" style="rounded=0;whiteSpace=wrap;html=1;" parent="1" vertex="1">
          <mxGeometry x="210" y="370" width="100" height="35" as="geometry" />
        </mxCell>
        <mxCell id="SYFXpM9oOOUhwHKFrdhU-2" value="&lt;u&gt;Matricula&lt;/u&gt;" style="ellipse;whiteSpace=wrap;html=1;" parent="1" vertex="1">
          <mxGeometry x="120" y="270" width="60" height="40" as="geometry" />
        </mxCell>
        <mxCell id="SYFXpM9oOOUhwHKFrdhU-3" value="Nome" style="ellipse;whiteSpace=wrap;html=1;" parent="1" vertex="1">
          <mxGeometry x="190" y="270" width="60" height="40" as="geometry" />
        </mxCell>
        <mxCell id="SYFXpM9oOOUhwHKFrdhU-4" value="Data de Nascimento" style="ellipse;whiteSpace=wrap;html=1;" parent="1" vertex="1">
          <mxGeometry x="260" y="270" width="100" height="40" as="geometry" />
        </mxCell>
        <mxCell id="SYFXpM9oOOUhwHKFrdhU-5" value="Idade" style="ellipse;whiteSpace=wrap;html=1;shadow=0;dashed=1;" parent="1" vertex="1">
          <mxGeometry x="370" y="270" width="60" height="40" as="geometry" />
        </mxCell>
        <mxCell id="SYFXpM9oOOUhwHKFrdhU-10" style="edgeStyle=orthogonalEdgeStyle;rounded=0;orthogonalLoop=1;jettySize=auto;html=1;exitX=1;exitY=0.5;exitDx=0;exitDy=0;" parent="1" source="SYFXpM9oOOUhwHKFrdhU-6" target="SYFXpM9oOOUhwHKFrdhU-9" edge="1">
          <mxGeometry relative="1" as="geometry" />
        </mxCell>
        <mxCell id="SYFXpM9oOOUhwHKFrdhU-6" value="Mora" style="rhombus;whiteSpace=wrap;html=1;shadow=0;" parent="1" vertex="1">
          <mxGeometry x="370" y="367.5" width="80" height="40" as="geometry" />
        </mxCell>
        <mxCell id="vOYP6_2Ntmlg7tgbJxV--11" style="edgeStyle=none;rounded=0;orthogonalLoop=1;jettySize=auto;html=1;exitX=0.5;exitY=0;exitDx=0;exitDy=0;entryX=0.5;entryY=1;entryDx=0;entryDy=0;" edge="1" parent="1" source="SYFXpM9oOOUhwHKFrdhU-9" target="vOYP6_2Ntmlg7tgbJxV--7">
          <mxGeometry relative="1" as="geometry" />
        </mxCell>
        <mxCell id="vOYP6_2Ntmlg7tgbJxV--12" style="edgeStyle=none;rounded=0;orthogonalLoop=1;jettySize=auto;html=1;entryX=0.5;entryY=1;entryDx=0;entryDy=0;" edge="1" parent="1" source="SYFXpM9oOOUhwHKFrdhU-9" target="vOYP6_2Ntmlg7tgbJxV--8">
          <mxGeometry relative="1" as="geometry" />
        </mxCell>
        <mxCell id="vOYP6_2Ntmlg7tgbJxV--14" style="edgeStyle=none;rounded=0;orthogonalLoop=1;jettySize=auto;html=1;" edge="1" parent="1" source="SYFXpM9oOOUhwHKFrdhU-9" target="vOYP6_2Ntmlg7tgbJxV--9">
          <mxGeometry relative="1" as="geometry" />
        </mxCell>
        <mxCell id="SYFXpM9oOOUhwHKFrdhU-9" value="Endereco" style="rounded=0;whiteSpace=wrap;html=1;" parent="1" vertex="1">
          <mxGeometry x="510" y="372.5" width="100" height="30" as="geometry" />
        </mxCell>
        <mxCell id="vOYP6_2Ntmlg7tgbJxV--7" value="&lt;u&gt;Numero&lt;/u&gt;" style="ellipse;whiteSpace=wrap;html=1;" vertex="1" parent="1">
          <mxGeometry x="450" y="270" width="60" height="40" as="geometry" />
        </mxCell>
        <mxCell id="vOYP6_2Ntmlg7tgbJxV--8" value="Rua" style="ellipse;whiteSpace=wrap;html=1;" vertex="1" parent="1">
          <mxGeometry x="520" y="270" width="60" height="40" as="geometry" />
        </mxCell>
        <mxCell id="vOYP6_2Ntmlg7tgbJxV--9" value="Bairro" style="ellipse;whiteSpace=wrap;html=1;" vertex="1" parent="1">
          <mxGeometry x="590" y="270" width="100" height="40" as="geometry" />
        </mxCell>
        <mxCell id="vOYP6_2Ntmlg7tgbJxV--10" value="Cidade" style="ellipse;whiteSpace=wrap;html=1;shadow=0;" vertex="1" parent="1">
          <mxGeometry x="700" y="270" width="60" height="40" as="geometry" />
        </mxCell>
      </root>
    </mxGraphModel>
  </diagram>
</mxfile>
